<svg width="430" height="59" viewBox="0 0 430 59" fill="none" xmlns="http://www.w3.org/2000/svg">
<path d="M70.2023 22.7045C70.7591 22.7083 71.3008 22.8068 71.8273 23C72.3576 23.1894 72.8349 23.5 73.2591 23.9318C73.6834 24.3598 74.0205 24.9337 74.2705 25.6534C74.5205 26.3731 74.6455 27.2633 74.6455 28.3239C74.6493 29.3239 74.5432 30.2178 74.3273 31.0057C74.1152 31.7898 73.8103 32.4527 73.4125 32.9943C73.0148 33.536 72.5356 33.9489 71.975 34.233C71.4144 34.517 70.7837 34.6591 70.083 34.6591C69.3481 34.6591 68.6966 34.5152 68.1284 34.2273C67.564 33.9394 67.1076 33.5455 66.7591 33.0455C66.4106 32.5455 66.1966 31.9735 66.1171 31.3295H68.1909C68.297 31.7917 68.5129 32.1591 68.8387 32.4318C69.1682 32.7008 69.583 32.8352 70.083 32.8352C70.8898 32.8352 71.511 32.4848 71.9466 31.7841C72.3822 31.0833 72.6 30.1098 72.6 28.8636H72.5205C72.3349 29.197 72.0943 29.4848 71.7989 29.7273C71.5034 29.9659 71.1682 30.1496 70.7932 30.2784C70.422 30.4072 70.0281 30.4716 69.6114 30.4716C68.9296 30.4716 68.3159 30.3087 67.7705 29.983C67.2288 29.6572 66.7989 29.2102 66.4807 28.642C66.1663 28.0739 66.0072 27.4242 66.0034 26.6932C66.0034 25.9356 66.1777 25.2557 66.5262 24.6534C66.8784 24.0473 67.369 23.5701 67.9978 23.2216C68.6265 22.8693 69.3614 22.697 70.2023 22.7045ZM70.208 24.4091C69.7989 24.4091 69.4296 24.5095 69.1 24.7102C68.7743 24.9072 68.5167 25.1761 68.3273 25.517C68.1417 25.8542 68.0489 26.2311 68.0489 26.6477C68.0527 27.0606 68.1455 27.4356 68.3273 27.7727C68.5129 28.1098 68.7648 28.3769 69.083 28.5739C69.405 28.7708 69.7724 28.8693 70.1853 28.8693C70.4921 28.8693 70.7781 28.8106 71.0432 28.6932C71.3084 28.5758 71.5394 28.4129 71.7364 28.2045C71.9371 27.9924 72.0925 27.7519 72.2023 27.483C72.3159 27.214 72.3709 26.9299 72.3671 26.6307C72.3671 26.233 72.2724 25.8655 72.083 25.5284C71.8974 25.1913 71.6417 24.9205 71.3159 24.7159C70.994 24.5114 70.6246 24.4091 70.208 24.4091ZM77.5073 33.1023C77.1626 33.1023 76.8671 32.9811 76.6209 32.7386C76.3747 32.4924 76.2535 32.197 76.2573 31.8523C76.2535 31.5114 76.3747 31.2197 76.6209 30.9773C76.8671 30.7348 77.1626 30.6136 77.5073 30.6136C77.8406 30.6136 78.1304 30.7348 78.3766 30.9773C78.6266 31.2197 78.7535 31.5114 78.7573 31.8523C78.7535 32.0833 78.6929 32.2936 78.5755 32.483C78.4618 32.6723 78.3103 32.8239 78.1209 32.9375C77.9353 33.0473 77.7308 33.1023 77.5073 33.1023ZM77.5073 27.3352C77.1626 27.3352 76.8671 27.214 76.6209 26.9716C76.3747 26.7254 76.2535 26.4299 76.2573 26.0852C76.2535 25.7443 76.3747 25.4527 76.6209 25.2102C76.8671 24.964 77.1626 24.8409 77.5073 24.8409C77.8406 24.8409 78.1304 24.964 78.3766 25.2102C78.6266 25.4527 78.7535 25.7443 78.7573 26.0852C78.7535 26.3125 78.6929 26.5208 78.5755 26.7102C78.4618 26.8996 78.3103 27.0511 78.1209 27.1648C77.9353 27.2784 77.7308 27.3352 77.5073 27.3352ZM80.3279 32.3409V30.6648L85.2654 22.8636H86.6632V25.25H85.8109L82.487 30.517V30.608H89.3791V32.3409H80.3279ZM85.8791 34.5V31.8295L85.9018 31.0795V22.8636H87.8904V34.5H85.8791ZM95.4511 22.8636V34.5H93.3432V24.9148H93.275L90.5534 26.6534V24.7216L93.4454 22.8636H95.4511Z" fill="black"/>
<rect x="152.5" y="11" width="125" height="37" rx="18.5" fill="black"/>
<rect x="152.5" y="11" width="80" height="37" rx="18.5" fill="black"/>
<rect x="240.5" y="11" width="37" height="37" rx="18.5" fill="black"/>
<path d="M319.049 26C319.049 25.4477 319.497 25 320.049 25H321.049C321.602 25 322.049 25.4477 322.049 26V34C322.049 34.5523 321.602 35 321.049 35H320.049C319.497 35 319.049 34.5523 319.049 34V26Z" fill="black"/>
<path d="M324.049 24C324.049 23.4477 324.497 23 325.049 23H326.049C326.602 23 327.049 23.4477 327.049 24V34C327.049 34.5523 326.602 35 326.049 35H325.049C324.497 35 324.049 34.5523 324.049 34V24Z" fill="black"/>
<path d="M314.049 29.5C314.049 28.9477 314.497 28.5 315.049 28.5H316.049C316.602 28.5 317.049 28.9477 317.049 29.5V34C317.049 34.5523 316.602 35 316.049 35H315.049C314.497 35 314.049 34.5523 314.049 34V29.5Z" fill="black"/>
<path d="M309.049 32C309.049 31.4477 309.497 31 310.049 31H311.049C311.602 31 312.049 31.4477 312.049 32V34C312.049 34.5523 311.602 35 311.049 35H310.049C309.497 35 309.049 34.5523 309.049 34V32Z" fill="black"/>
<path fill-rule="evenodd" clip-rule="evenodd" d="M343.55 25.5875C346.016 25.5876 348.389 26.5551 350.176 28.2898C350.311 28.4237 350.526 28.4221 350.659 28.286L351.945 26.9605C352.013 26.8915 352.05 26.798 352.049 26.7008C352.049 26.6035 352.01 26.5105 351.942 26.4423C347.251 21.8526 339.849 21.8526 335.157 26.4423C335.089 26.5105 335.05 26.6034 335.049 26.7007C335.049 26.7979 335.086 26.8914 335.153 26.9605L336.44 28.286C336.573 28.4223 336.788 28.424 336.923 28.2898C338.711 26.5549 341.083 25.5875 343.55 25.5875ZM343.585 29.5894C344.941 29.5893 346.247 30.1035 347.252 31.032C347.388 31.1638 347.602 31.1609 347.734 31.0255L349.02 29.7C349.087 29.6304 349.125 29.5361 349.124 29.4381C349.123 29.3401 349.083 29.2466 349.014 29.1784C345.955 26.2739 341.218 26.2739 338.159 29.1784C338.09 29.2466 338.05 29.3401 338.049 29.4382C338.049 29.5362 338.086 29.6305 338.154 29.7L339.439 31.0255C339.571 31.1609 339.785 31.1638 339.921 31.032C340.925 30.1041 342.231 29.5899 343.585 29.5894ZM346.199 32.1767C346.201 32.275 346.163 32.3698 346.094 32.4386L343.871 34.7289C343.806 34.7962 343.717 34.834 343.624 34.834C343.532 34.834 343.443 34.7962 343.378 34.7289L341.154 32.4386C341.085 32.3697 341.047 32.2749 341.05 32.1766C341.052 32.0783 341.093 31.9853 341.165 31.9194C342.585 30.6935 344.664 30.6935 346.084 31.9194C346.155 31.9853 346.197 32.0784 346.199 32.1767Z" fill="black"/>
<path opacity="0.35" d="M364.049 23.5H381.049C382.982 23.5 384.549 25.067 384.549 27V32C384.549 33.933 382.982 35.5 381.049 35.5H364.049C362.116 35.5 360.549 33.933 360.549 32V27C360.549 25.067 362.116 23.5 364.049 23.5Z" stroke="black"/>
<path opacity="0.4" d="M386.049 28V32.2203C386.898 31.8629 387.451 31.0314 387.451 30.1102C387.451 29.1889 386.898 28.3574 386.049 28" fill="black"/>
<path d="M362.049 27C362.049 25.8954 362.945 25 364.049 25H381.049C382.154 25 383.049 25.8954 383.049 27V32C383.049 33.1046 382.154 34 381.049 34H364.049C362.945 34 362.049 33.1046 362.049 32V27Z" fill="black"/>
</svg>
