<svg width="49" height="81" viewBox="0 0 49 81" fill="none" xmlns="http://www.w3.org/2000/svg">
<path d="M23.1587 80.1562C16.1153 80.1562 5.97984 72.2085 2.09189 66.3924V61.3828C3.61326 64.7708 11.1145 71.9685 13.9882 73.8884C16.9182 75.8083 19.7779 77.6999 23.8348 77.6999C26.6522 77.6999 29.2442 77.0788 31.6108 75.8365C34.0337 74.5942 35.9495 72.8438 37.3582 70.5851C38.7668 68.3264 39.4712 65.7289 39.4712 62.7926C39.4712 60.1386 39.0204 57.8517 38.1189 55.9318C37.2173 54.0119 35.7241 52.1768 33.6392 50.4263C31.5544 48.6193 28.5398 46.5018 24.5955 44.0737L21.8909 42.3797C19.4116 40.8551 17.4113 39.4999 15.8899 38.3141C14.3685 37.1283 13.0444 35.7448 11.9174 34.1637C10.4524 31.9615 9.71988 29.4205 9.71988 26.5407C9.71988 22.7009 10.9595 19.7081 13.4388 17.5624C15.9181 15.4166 19.0735 14.3438 22.9051 14.3438C29.3203 14.3438 39.4712 18.7734 46.1953 31.3262V33.3281C40.8282 24.2228 35.0156 21.2674 31.2188 18.9844C28.9649 17.6292 25.1872 16.8001 22.4825 16.8001C19.6652 16.8001 17.2986 17.6753 15.3828 19.4258C13.467 21.1763 12.5091 23.5197 12.5091 26.456C12.5091 29.3358 13.3824 31.8203 15.1292 33.9096C16.9323 35.9424 19.9469 38.1729 24.1729 40.601C29.3569 43.6502 33.3857 46.4171 36.2594 48.9017C38.2879 50.7651 39.7529 52.8261 40.6545 55.0848C41.6124 57.3435 42.0913 59.8563 42.0913 62.6232C42.0913 66.1242 41.2743 69.2016 39.6402 71.8556C38.0062 74.5095 35.7523 76.5706 32.8786 78.0387C30.0049 79.4504 26.7649 80.1562 23.1587 80.1562Z" fill="url(#paint0_linear_142_2700)"/>
<path d="M48.9375 31.4297V78.9704H46.8456V34.3755L24.4054 79.8598L2.09189 34.8021V78.9704H0V31.3858L2.97936 31.3262L24.4688 75.3047L46.1953 31.3262L48.9375 31.4297Z" fill="url(#paint1_linear_142_2700)"/>
<path d="M0 78.0469H48.9375V80.5781H0V78.0469Z" fill="url(#paint2_linear_142_2700)"/>
<path d="M0 31.3839L24.0469 0.632813L26.0275 2.19752L1.99426 32.9428L0 31.3839Z" fill="url(#paint3_linear_142_2700)"/>
<path d="M48.9687 31.4145L24.8906 0.632812L22.9777 2.19414L47.0136 32.9428L48.9687 31.4145Z" fill="url(#paint4_linear_142_2700)"/>
<path d="M24.4688 0L24.0469 0.632813V1.26562H25.1016L24.8906 0.632812L24.4688 0Z" fill="url(#paint5_linear_142_2700)"/>
<defs>
<linearGradient id="paint0_linear_142_2700" x1="-8.35245" y1="40.1719" x2="56.1226" y2="40.1719" gradientUnits="userSpaceOnUse">
<stop stop-color="#6C8275"/>
<stop offset="1" stop-color="#5A5C95"/>
</linearGradient>
<linearGradient id="paint1_linear_142_2700" x1="-8.35245" y1="40.1719" x2="56.1226" y2="40.1719" gradientUnits="userSpaceOnUse">
<stop stop-color="#6C8275"/>
<stop offset="1" stop-color="#5A5C95"/>
</linearGradient>
<linearGradient id="paint2_linear_142_2700" x1="-8.35245" y1="40.1719" x2="56.1226" y2="40.1719" gradientUnits="userSpaceOnUse">
<stop stop-color="#6C8275"/>
<stop offset="1" stop-color="#5A5C95"/>
</linearGradient>
<linearGradient id="paint3_linear_142_2700" x1="-8.35245" y1="40.1719" x2="56.1226" y2="40.1719" gradientUnits="userSpaceOnUse">
<stop stop-color="#6C8275"/>
<stop offset="1" stop-color="#5A5C95"/>
</linearGradient>
<linearGradient id="paint4_linear_142_2700" x1="-8.35245" y1="40.1719" x2="56.1226" y2="40.1719" gradientUnits="userSpaceOnUse">
<stop stop-color="#6C8275"/>
<stop offset="1" stop-color="#5A5C95"/>
</linearGradient>
<linearGradient id="paint5_linear_142_2700" x1="-8.35245" y1="40.1719" x2="56.1226" y2="40.1719" gradientUnits="userSpaceOnUse">
<stop stop-color="#6C8275"/>
<stop offset="1" stop-color="#5A5C95"/>
</linearGradient>
</defs>
</svg>
