<svg width="428" height="452" viewBox="0 0 428 452" fill="none" xmlns="http://www.w3.org/2000/svg">
<g opacity="0.67">
<path d="M455.695 338.586C452.123 333.197 448.144 329.405 443.757 327.212C439.433 325.019 434.482 323.922 428.905 323.922C423.39 323.922 418.565 324.925 414.429 326.93C410.293 328.935 406.815 331.787 403.995 335.484C401.238 339.119 399.138 343.505 397.697 348.644C396.318 353.72 395.629 359.329 395.629 365.47C395.629 379.382 398.167 389.628 403.243 396.208C408.382 402.725 415.776 405.984 425.427 405.984C431.568 405.984 437.177 404.386 442.253 401.19C447.329 397.994 451.81 393.513 455.695 387.748V338.586ZM464.625 275.23V412H459.737C458.108 412 457.168 411.185 456.917 409.556L455.977 394.798C451.841 400.438 447.016 404.919 441.501 408.24C435.986 411.561 429.782 413.222 422.889 413.222C411.358 413.222 402.397 409.243 396.005 401.284C389.613 393.325 386.417 381.387 386.417 365.47C386.417 358.639 387.294 352.279 389.049 346.388C390.866 340.435 393.498 335.296 396.945 330.972C400.392 326.585 404.622 323.139 409.635 320.632C414.711 318.125 420.539 316.872 427.119 316.872C433.448 316.872 438.932 318.031 443.569 320.35C448.206 322.669 452.248 326.115 455.695 330.69V275.23H464.625Z" fill="#FDFCF7"/>
<path d="M300.82 334.826C305.144 329.437 310.126 325.113 315.766 321.854C321.469 318.595 327.798 316.966 334.754 316.966C339.893 316.966 344.405 317.781 348.29 319.41C352.238 321.039 355.497 323.389 358.066 326.46C360.635 329.531 362.578 333.228 363.894 337.552C365.21 341.876 365.868 346.764 365.868 352.216V412H356.844V352.216C356.844 343.443 354.839 336.581 350.828 331.63C346.817 326.617 340.707 324.11 332.498 324.11C326.419 324.11 320.717 325.677 315.39 328.81C310.126 331.881 305.426 336.173 301.29 341.688V412H292.266V318.47H297.248C298.815 318.47 299.723 319.253 299.974 320.82L300.82 334.826Z" fill="#FDFCF7"/>
<path d="M264.13 318.47V412H255.2V318.47H264.13ZM267.984 286.228C267.984 287.356 267.734 288.421 267.232 289.424C266.794 290.364 266.198 291.21 265.446 291.962C264.694 292.714 263.817 293.309 262.814 293.748C261.812 294.187 260.746 294.406 259.618 294.406C258.49 294.406 257.425 294.187 256.422 293.748C255.42 293.309 254.542 292.714 253.79 291.962C253.038 291.21 252.443 290.364 252.004 289.424C251.566 288.421 251.346 287.356 251.346 286.228C251.346 285.1 251.566 284.035 252.004 283.032C252.443 281.967 253.038 281.058 253.79 280.306C254.542 279.554 255.42 278.959 256.422 278.52C257.425 278.081 258.49 277.862 259.618 277.862C260.746 277.862 261.812 278.081 262.814 278.52C263.817 278.959 264.694 279.554 265.446 280.306C266.198 281.058 266.794 281.967 267.232 283.032C267.734 284.035 267.984 285.1 267.984 286.228Z" fill="#FDFCF7"/>
<path d="M106.645 412V318.47H111.627C113.194 318.47 114.103 319.253 114.353 320.82L115.199 334.356C118.834 329.155 123.001 324.956 127.701 321.76C132.401 318.564 137.697 316.966 143.587 316.966C150.418 316.966 155.87 318.94 159.943 322.888C164.079 326.836 166.868 332.319 168.309 339.338C169.437 335.515 171.004 332.194 173.009 329.374C175.077 326.554 177.427 324.235 180.059 322.418C182.691 320.538 185.543 319.159 188.613 318.282C191.747 317.405 194.943 316.966 198.201 316.966C202.839 316.966 207.006 317.749 210.703 319.316C214.401 320.82 217.534 323.076 220.103 326.084C222.673 329.092 224.647 332.789 226.025 337.176C227.404 341.563 228.093 346.576 228.093 352.216V412H219.163V352.216C219.163 343.067 217.189 336.111 213.241 331.348C209.293 326.523 203.653 324.11 196.321 324.11C193.063 324.11 189.929 324.705 186.921 325.896C183.976 327.087 181.344 328.873 179.025 331.254C176.769 333.573 174.952 336.487 173.573 339.996C172.257 343.505 171.599 347.579 171.599 352.216V412H162.575V352.216C162.575 343.129 160.758 336.173 157.123 331.348C153.551 326.523 148.287 324.11 141.331 324.11C136.255 324.11 131.555 325.614 127.231 328.622C122.907 331.63 119.053 335.797 115.669 341.124V412H106.645Z" fill="#FDFCF7"/>
<path d="M455.695 112.586C452.123 107.197 448.144 103.405 443.757 101.212C439.433 99.0186 434.482 97.922 428.905 97.922C423.39 97.922 418.565 98.9247 414.429 100.93C410.293 102.935 406.815 105.787 403.995 109.484C401.238 113.119 399.138 117.505 397.697 122.644C396.318 127.72 395.629 133.329 395.629 139.47C395.629 153.382 398.167 163.628 403.243 170.208C408.382 176.725 415.776 179.984 425.427 179.984C431.568 179.984 437.177 178.386 442.253 175.19C447.329 171.994 451.81 167.513 455.695 161.748V112.586ZM464.625 49.23V186H459.737C458.108 186 457.168 185.185 456.917 183.556L455.977 168.798C451.841 174.438 447.016 178.919 441.501 182.24C435.986 185.561 429.782 187.222 422.889 187.222C411.358 187.222 402.397 183.243 396.005 175.284C389.613 167.325 386.417 155.387 386.417 139.47C386.417 132.639 387.294 126.279 389.049 120.388C390.866 114.435 393.498 109.296 396.945 104.972C400.392 100.585 404.622 97.1386 409.635 94.632C414.711 92.1253 420.539 90.872 427.119 90.872C433.448 90.872 438.932 92.0313 443.569 94.35C448.206 96.6686 452.248 100.115 455.695 104.69V49.23H464.625Z" fill="#FDFCF7"/>
<path d="M300.82 108.826C305.144 103.437 310.126 99.1126 315.766 95.854C321.469 92.5953 327.798 90.966 334.754 90.966C339.893 90.966 344.405 91.7806 348.29 93.41C352.238 95.0393 355.497 97.3893 358.066 100.46C360.635 103.531 362.578 107.228 363.894 111.552C365.21 115.876 365.868 120.764 365.868 126.216V186H356.844V126.216C356.844 117.443 354.839 110.581 350.828 105.63C346.817 100.617 340.707 98.11 332.498 98.11C326.419 98.11 320.717 99.6766 315.39 102.81C310.126 105.881 305.426 110.173 301.29 115.688V186H292.266V92.47H297.248C298.815 92.47 299.723 93.2533 299.974 94.82L300.82 108.826Z" fill="#FDFCF7"/>
<path d="M265.231 92.47V186H260.249C258.682 186 257.773 185.185 257.523 183.556L256.677 169.644C252.353 175.033 247.339 179.357 241.637 182.616C235.997 185.875 229.699 187.504 222.743 187.504C217.541 187.504 212.998 186.689 209.113 185.06C205.227 183.431 202 181.081 199.431 178.01C196.861 174.939 194.919 171.242 193.603 166.918C192.287 162.594 191.629 157.706 191.629 152.254V92.47H200.653V152.254C200.653 161.027 202.658 167.921 206.669 172.934C210.679 177.885 216.789 180.36 224.999 180.36C231.077 180.36 236.749 178.825 242.013 175.754C247.339 172.621 252.071 168.297 256.207 162.782V92.47H265.231Z" fill="#FDFCF7"/>
<path d="M128.627 90.966C135.332 90.966 141.317 92.1253 146.581 94.444C151.907 96.7 156.388 99.9273 160.023 104.126C163.657 108.325 166.415 113.401 168.295 119.354C170.237 125.245 171.209 131.856 171.209 139.188C171.209 146.52 170.237 153.131 168.295 159.022C166.415 164.913 163.657 169.957 160.023 174.156C156.388 178.355 151.907 181.582 146.581 183.838C141.317 186.094 135.332 187.222 128.627 187.222C121.921 187.222 115.905 186.094 110.579 183.838C105.315 181.582 100.834 178.355 97.1365 174.156C93.5019 169.957 90.7132 164.913 88.7705 159.022C86.8905 153.131 85.9505 146.52 85.9505 139.188C85.9505 131.856 86.8905 125.245 88.7705 119.354C90.7132 113.401 93.5019 108.325 97.1365 104.126C100.834 99.9273 105.315 96.7 110.579 94.444C115.905 92.1253 121.921 90.966 128.627 90.966ZM128.627 180.172C134.204 180.172 139.061 179.232 143.197 177.352C147.395 175.409 150.873 172.652 153.631 169.08C156.451 165.508 158.55 161.215 159.929 156.202C161.307 151.126 161.997 145.455 161.997 139.188C161.997 132.984 161.307 127.344 159.929 122.268C158.55 117.192 156.451 112.868 153.631 109.296C150.873 105.661 147.395 102.873 143.197 100.93C139.061 98.9873 134.204 98.016 128.627 98.016C123.049 98.016 118.161 98.9873 113.963 100.93C109.827 102.873 106.349 105.661 103.529 109.296C100.771 112.868 98.6719 117.192 97.2305 122.268C95.8519 127.344 95.1625 132.984 95.1625 139.188C95.1625 145.455 95.8519 151.126 97.2305 156.202C98.6719 161.215 100.771 165.508 103.529 169.08C106.349 172.652 109.827 175.409 113.963 177.352C118.161 179.232 123.049 180.172 128.627 180.172Z" fill="#FDFCF7"/>
<path d="M66.9053 104.032C66.4039 104.909 65.6833 105.348 64.7433 105.348C64.0539 105.348 63.1766 104.972 62.1113 104.22C61.0459 103.405 59.6046 102.528 57.7873 101.588C56.0326 100.585 53.8393 99.708 51.2073 98.956C48.5753 98.1413 45.3793 97.734 41.6193 97.734C38.2353 97.734 35.1333 98.2353 32.3133 99.238C29.5559 100.178 27.1746 101.463 25.1693 103.092C23.2266 104.721 21.7226 106.633 20.6573 108.826C19.5919 110.957 19.0593 113.213 19.0593 115.594C19.0593 118.539 19.8113 120.983 21.3153 122.926C22.8193 124.869 24.7619 126.529 27.1433 127.908C29.5873 129.287 32.3759 130.477 35.5093 131.48C38.6426 132.483 41.8073 133.485 45.0033 134.488C48.2619 135.491 51.4579 136.619 54.5913 137.872C57.7246 139.063 60.4819 140.567 62.8633 142.384C65.3073 144.201 67.2813 146.426 68.7853 149.058C70.2893 151.69 71.0413 154.886 71.0413 158.646C71.0413 162.719 70.3206 166.511 68.8793 170.02C67.4379 173.529 65.3073 176.569 62.4873 179.138C59.7299 181.707 56.3146 183.744 52.2413 185.248C48.1679 186.752 43.4993 187.504 38.2353 187.504C31.6553 187.504 25.9839 186.47 21.2213 184.402C16.4586 182.271 12.1973 179.514 8.43726 176.13L10.5053 172.934C10.8186 172.433 11.1633 172.057 11.5393 171.806C11.9779 171.555 12.5419 171.43 13.2313 171.43C14.0459 171.43 15.0173 171.931 16.1453 172.934C17.3359 173.937 18.9026 175.033 20.8453 176.224C22.7879 177.352 25.1693 178.417 27.9893 179.42C30.8719 180.423 34.4126 180.924 38.6113 180.924C42.5593 180.924 46.0373 180.391 49.0453 179.326C52.0533 178.198 54.5599 176.694 56.5653 174.814C58.5706 172.934 60.0746 170.741 61.0773 168.234C62.1426 165.665 62.6753 162.97 62.6753 160.15C62.6753 157.017 61.9233 154.416 60.4193 152.348C58.9153 150.28 56.9413 148.525 54.4973 147.084C52.0533 145.643 49.2646 144.421 46.1313 143.418C43.0606 142.415 39.8959 141.413 36.6373 140.41C33.3786 139.407 30.1826 138.311 27.0493 137.12C23.9786 135.929 21.2213 134.425 18.7773 132.608C16.3333 130.791 14.3593 128.597 12.8553 126.028C11.3513 123.396 10.5993 120.137 10.5993 116.252C10.5993 112.931 11.3199 109.735 12.7613 106.664C14.2026 103.593 16.2393 100.899 18.8713 98.58C21.5659 96.2613 24.8246 94.4126 28.6473 93.034C32.4699 91.6553 36.7626 90.966 41.5253 90.966C47.2279 90.966 52.2726 91.7806 56.6593 93.41C61.1086 95.0393 65.1506 97.546 68.7853 100.93L66.9053 104.032Z" fill="#FDFCF7"/>
</g>
</svg>
