<svg width="891" height="452" viewBox="0 0 891 452" fill="none" xmlns="http://www.w3.org/2000/svg">
<g opacity="0.67">
<path d="M665.258 338.586C661.686 333.197 657.707 329.405 653.32 327.212C648.996 325.019 644.045 323.922 638.468 323.922C632.953 323.922 628.128 324.925 623.992 326.93C619.856 328.935 616.378 331.787 613.558 335.484C610.801 339.119 608.701 343.505 607.26 348.644C605.881 353.72 605.192 359.329 605.192 365.47C605.192 379.382 607.73 389.628 612.806 396.208C617.945 402.725 625.339 405.984 634.99 405.984C641.131 405.984 646.74 404.386 651.816 401.19C656.892 397.994 661.373 393.513 665.258 387.748V338.586ZM674.188 275.23V412H669.3C667.671 412 666.731 411.185 666.48 409.556L665.54 394.798C661.404 400.438 656.579 404.919 651.064 408.24C645.549 411.561 639.345 413.222 632.452 413.222C620.921 413.222 611.96 409.243 605.568 401.284C599.176 393.325 595.98 381.387 595.98 365.47C595.98 358.639 596.857 352.279 598.612 346.388C600.429 340.435 603.061 335.296 606.508 330.972C609.955 326.585 614.185 323.139 619.198 320.632C624.274 318.125 630.102 316.872 636.682 316.872C643.011 316.872 648.495 318.031 653.132 320.35C657.769 322.669 661.811 326.115 665.258 330.69V275.23H674.188Z" fill="#FDFCF7"/>
<path d="M510.383 334.826C514.707 329.437 519.689 325.113 525.329 321.854C531.031 318.595 537.361 316.966 544.317 316.966C549.455 316.966 553.967 317.781 557.853 319.41C561.801 321.039 565.059 323.389 567.629 326.46C570.198 329.531 572.141 333.228 573.457 337.552C574.773 341.876 575.431 346.764 575.431 352.216V412H566.407V352.216C566.407 343.443 564.401 336.581 560.391 331.63C556.38 326.617 550.27 324.11 542.061 324.11C535.982 324.11 530.279 325.677 524.953 328.81C519.689 331.881 514.989 336.173 510.853 341.688V412H501.829V318.47H506.811C508.377 318.47 509.286 319.253 509.537 320.82L510.383 334.826Z" fill="#FDFCF7"/>
<path d="M473.693 318.47V412H464.763V318.47H473.693ZM477.547 286.228C477.547 287.356 477.297 288.421 476.795 289.424C476.357 290.364 475.761 291.21 475.009 291.962C474.257 292.714 473.38 293.309 472.377 293.748C471.375 294.187 470.309 294.406 469.181 294.406C468.053 294.406 466.988 294.187 465.985 293.748C464.983 293.309 464.105 292.714 463.353 291.962C462.601 291.21 462.006 290.364 461.567 289.424C461.129 288.421 460.909 287.356 460.909 286.228C460.909 285.1 461.129 284.035 461.567 283.032C462.006 281.967 462.601 281.058 463.353 280.306C464.105 279.554 464.983 278.959 465.985 278.52C466.988 278.081 468.053 277.862 469.181 277.862C470.309 277.862 471.375 278.081 472.377 278.52C473.38 278.959 474.257 279.554 475.009 280.306C475.761 281.058 476.357 281.967 476.795 283.032C477.297 284.035 477.547 285.1 477.547 286.228Z" fill="#FDFCF7"/>
<path d="M316.208 412V318.47H321.19C322.757 318.47 323.665 319.253 323.916 320.82L324.762 334.356C328.397 329.155 332.564 324.956 337.264 321.76C341.964 318.564 347.259 316.966 353.15 316.966C359.981 316.966 365.433 318.94 369.506 322.888C373.642 326.836 376.431 332.319 377.872 339.338C379 335.515 380.567 332.194 382.572 329.374C384.64 326.554 386.99 324.235 389.622 322.418C392.254 320.538 395.105 319.159 398.176 318.282C401.309 317.405 404.505 316.966 407.764 316.966C412.401 316.966 416.569 317.749 420.266 319.316C423.963 320.82 427.097 323.076 429.666 326.084C432.235 329.092 434.209 332.789 435.588 337.176C436.967 341.563 437.656 346.576 437.656 352.216V412H428.726V352.216C428.726 343.067 426.752 336.111 422.804 331.348C418.856 326.523 413.216 324.11 405.884 324.11C402.625 324.11 399.492 324.705 396.484 325.896C393.539 327.087 390.907 328.873 388.588 331.254C386.332 333.573 384.515 336.487 383.136 339.996C381.82 343.505 381.162 347.579 381.162 352.216V412H372.138V352.216C372.138 343.129 370.321 336.173 366.686 331.348C363.114 326.523 357.85 324.11 350.894 324.11C345.818 324.11 341.118 325.614 336.794 328.622C332.47 331.63 328.616 335.797 325.232 341.124V412H316.208Z" fill="#FDFCF7"/>
<path d="M665.258 112.586C661.686 107.197 657.707 103.405 653.32 101.212C648.996 99.0186 644.045 97.922 638.468 97.922C632.953 97.922 628.128 98.9247 623.992 100.93C619.856 102.935 616.378 105.787 613.558 109.484C610.801 113.119 608.701 117.505 607.26 122.644C605.881 127.72 605.192 133.329 605.192 139.47C605.192 153.382 607.73 163.628 612.806 170.208C617.945 176.725 625.339 179.984 634.99 179.984C641.131 179.984 646.74 178.386 651.816 175.19C656.892 171.994 661.373 167.513 665.258 161.748V112.586ZM674.188 49.23V186H669.3C667.671 186 666.731 185.185 666.48 183.556L665.54 168.798C661.404 174.438 656.579 178.919 651.064 182.24C645.549 185.561 639.345 187.222 632.452 187.222C620.921 187.222 611.96 183.243 605.568 175.284C599.176 167.325 595.98 155.387 595.98 139.47C595.98 132.639 596.857 126.279 598.612 120.388C600.429 114.435 603.061 109.296 606.508 104.972C609.955 100.585 614.185 97.1386 619.198 94.632C624.274 92.1253 630.102 90.872 636.682 90.872C643.011 90.872 648.495 92.0313 653.132 94.35C657.769 96.6686 661.811 100.115 665.258 104.69V49.23H674.188Z" fill="#FDFCF7"/>
<path d="M510.383 108.826C514.707 103.437 519.689 99.1126 525.329 95.854C531.031 92.5953 537.361 90.966 544.317 90.966C549.455 90.966 553.967 91.7806 557.853 93.41C561.801 95.0393 565.059 97.3893 567.629 100.46C570.198 103.531 572.141 107.228 573.457 111.552C574.773 115.876 575.431 120.764 575.431 126.216V186H566.407V126.216C566.407 117.443 564.401 110.581 560.391 105.63C556.38 100.617 550.27 98.11 542.061 98.11C535.982 98.11 530.279 99.6766 524.953 102.81C519.689 105.881 514.989 110.173 510.853 115.688V186H501.829V92.47H506.811C508.377 92.47 509.286 93.2533 509.537 94.82L510.383 108.826Z" fill="#FDFCF7"/>
<path d="M474.793 92.47V186H469.811C468.245 186 467.336 185.185 467.085 183.556L466.239 169.644C461.915 175.033 456.902 179.357 451.199 182.616C445.559 185.875 439.261 187.504 432.305 187.504C427.104 187.504 422.561 186.689 418.675 185.06C414.79 183.431 411.563 181.081 408.993 178.01C406.424 174.939 404.481 171.242 403.165 166.918C401.849 162.594 401.191 157.706 401.191 152.254V92.47H410.215V152.254C410.215 161.027 412.221 167.921 416.231 172.934C420.242 177.885 426.352 180.36 434.561 180.36C440.64 180.36 446.311 178.825 451.575 175.754C456.902 172.621 461.633 168.297 465.769 162.782V92.47H474.793Z" fill="#FDFCF7"/>
<path d="M338.189 90.966C344.895 90.966 350.879 92.1253 356.143 94.444C361.47 96.7 365.951 99.9273 369.585 104.126C373.22 108.325 375.977 113.401 377.857 119.354C379.8 125.245 380.771 131.856 380.771 139.188C380.771 146.52 379.8 153.131 377.857 159.022C375.977 164.913 373.22 169.957 369.585 174.156C365.951 178.355 361.47 181.582 356.143 183.838C350.879 186.094 344.895 187.222 338.189 187.222C331.484 187.222 325.468 186.094 320.141 183.838C314.877 181.582 310.397 178.355 306.699 174.156C303.065 169.957 300.276 164.913 298.333 159.022C296.453 153.131 295.513 146.52 295.513 139.188C295.513 131.856 296.453 125.245 298.333 119.354C300.276 113.401 303.065 108.325 306.699 104.126C310.397 99.9273 314.877 96.7 320.141 94.444C325.468 92.1253 331.484 90.966 338.189 90.966ZM338.189 180.172C343.767 180.172 348.623 179.232 352.759 177.352C356.958 175.409 360.436 172.652 363.193 169.08C366.013 165.508 368.113 161.215 369.491 156.202C370.87 151.126 371.559 145.455 371.559 139.188C371.559 132.984 370.87 127.344 369.491 122.268C368.113 117.192 366.013 112.868 363.193 109.296C360.436 105.661 356.958 102.873 352.759 100.93C348.623 98.9873 343.767 98.016 338.189 98.016C332.612 98.016 327.724 98.9873 323.525 100.93C319.389 102.873 315.911 105.661 313.091 109.296C310.334 112.868 308.235 117.192 306.793 122.268C305.415 127.344 304.725 132.984 304.725 139.188C304.725 145.455 305.415 151.126 306.793 156.202C308.235 161.215 310.334 165.508 313.091 169.08C315.911 172.652 319.389 175.409 323.525 177.352C327.724 179.232 332.612 180.172 338.189 180.172Z" fill="#FDFCF7"/>
<path d="M276.468 104.032C275.967 104.909 275.246 105.348 274.306 105.348C273.617 105.348 272.739 104.972 271.674 104.22C270.609 103.405 269.167 102.528 267.35 101.588C265.595 100.585 263.402 99.708 260.77 98.956C258.138 98.1413 254.942 97.734 251.182 97.734C247.798 97.734 244.696 98.2353 241.876 99.238C239.119 100.178 236.737 101.463 234.732 103.092C232.789 104.721 231.285 106.633 230.22 108.826C229.155 110.957 228.622 113.213 228.622 115.594C228.622 118.539 229.374 120.983 230.878 122.926C232.382 124.869 234.325 126.529 236.706 127.908C239.15 129.287 241.939 130.477 245.072 131.48C248.205 132.483 251.37 133.485 254.566 134.488C257.825 135.491 261.021 136.619 264.154 137.872C267.287 139.063 270.045 140.567 272.426 142.384C274.87 144.201 276.844 146.426 278.348 149.058C279.852 151.69 280.604 154.886 280.604 158.646C280.604 162.719 279.883 166.511 278.442 170.02C277.001 173.529 274.87 176.569 272.05 179.138C269.293 181.707 265.877 183.744 261.804 185.248C257.731 186.752 253.062 187.504 247.798 187.504C241.218 187.504 235.547 186.47 230.784 184.402C226.021 182.271 221.76 179.514 218 176.13L220.068 172.934C220.381 172.433 220.726 172.057 221.102 171.806C221.541 171.555 222.105 171.43 222.794 171.43C223.609 171.43 224.58 171.931 225.708 172.934C226.899 173.937 228.465 175.033 230.408 176.224C232.351 177.352 234.732 178.417 237.552 179.42C240.435 180.423 243.975 180.924 248.174 180.924C252.122 180.924 255.6 180.391 258.608 179.326C261.616 178.198 264.123 176.694 266.128 174.814C268.133 172.934 269.637 170.741 270.64 168.234C271.705 165.665 272.238 162.97 272.238 160.15C272.238 157.017 271.486 154.416 269.982 152.348C268.478 150.28 266.504 148.525 264.06 147.084C261.616 145.643 258.827 144.421 255.694 143.418C252.623 142.415 249.459 141.413 246.2 140.41C242.941 139.407 239.745 138.311 236.612 137.12C233.541 135.929 230.784 134.425 228.34 132.608C225.896 130.791 223.922 128.597 222.418 126.028C220.914 123.396 220.162 120.137 220.162 116.252C220.162 112.931 220.883 109.735 222.324 106.664C223.765 103.593 225.802 100.899 228.434 98.58C231.129 96.2613 234.387 94.4126 238.21 93.034C242.033 91.6553 246.325 90.966 251.088 90.966C256.791 90.966 261.835 91.7806 266.222 93.41C270.671 95.0393 274.713 97.546 278.348 100.93L276.468 104.032Z" fill="#FDFCF7"/>
</g>
</svg>
