<svg width="1057" height="564" viewBox="0 0 1057 564" fill="none" xmlns="http://www.w3.org/2000/svg">
<g opacity="0.67">
<path d="M747.258 389.356C743.686 383.967 739.707 380.175 735.32 377.982C730.996 375.789 726.045 374.692 720.468 374.692C714.953 374.692 710.128 375.695 705.992 377.7C701.856 379.705 698.378 382.557 695.558 386.254C692.801 389.889 690.701 394.275 689.26 399.414C687.881 404.49 687.192 410.099 687.192 416.24C687.192 430.152 689.73 440.398 694.806 446.978C699.945 453.495 707.339 456.754 716.99 456.754C723.131 456.754 728.74 455.156 733.816 451.96C738.892 448.764 743.373 444.283 747.258 438.518V389.356ZM756.188 326V462.77H751.3C749.671 462.77 748.731 461.955 748.48 460.326L747.54 445.568C743.404 451.208 738.579 455.689 733.064 459.01C727.549 462.331 721.345 463.992 714.452 463.992C702.921 463.992 693.96 460.013 687.568 452.054C681.176 444.095 677.98 432.157 677.98 416.24C677.98 409.409 678.857 403.049 680.612 397.158C682.429 391.205 685.061 386.066 688.508 381.742C691.955 377.355 696.185 373.909 701.198 371.402C706.274 368.895 712.102 367.642 718.682 367.642C725.011 367.642 730.495 368.801 735.132 371.12C739.769 373.439 743.811 376.885 747.258 381.46V326H756.188Z" fill="#FDFCF7"/>
<path d="M592.383 385.596C596.707 380.207 601.689 375.883 607.329 372.624C613.031 369.365 619.361 367.736 626.317 367.736C631.455 367.736 635.967 368.551 639.853 370.18C643.801 371.809 647.059 374.159 649.629 377.23C652.198 380.301 654.141 383.998 655.457 388.322C656.773 392.646 657.431 397.534 657.431 402.986V462.77H648.407V402.986C648.407 394.213 646.401 387.351 642.391 382.4C638.38 377.387 632.27 374.88 624.061 374.88C617.982 374.88 612.279 376.447 606.953 379.58C601.689 382.651 596.989 386.943 592.853 392.458V462.77H583.829V369.24H588.811C590.377 369.24 591.286 370.023 591.537 371.59L592.383 385.596Z" fill="#FDFCF7"/>
<path d="M555.693 369.24V462.77H546.763V369.24H555.693ZM559.547 336.998C559.547 338.126 559.297 339.191 558.795 340.194C558.357 341.134 557.761 341.98 557.009 342.732C556.257 343.484 555.38 344.079 554.377 344.518C553.375 344.957 552.309 345.176 551.181 345.176C550.053 345.176 548.988 344.957 547.985 344.518C546.983 344.079 546.105 343.484 545.353 342.732C544.601 341.98 544.006 341.134 543.567 340.194C543.129 339.191 542.909 338.126 542.909 336.998C542.909 335.87 543.129 334.805 543.567 333.802C544.006 332.737 544.601 331.828 545.353 331.076C546.105 330.324 546.983 329.729 547.985 329.29C548.988 328.851 550.053 328.632 551.181 328.632C552.309 328.632 553.375 328.851 554.377 329.29C555.38 329.729 556.257 330.324 557.009 331.076C557.761 331.828 558.357 332.737 558.795 333.802C559.297 334.805 559.547 335.87 559.547 336.998Z" fill="#FDFCF7"/>
<path d="M398.208 462.77V369.24H403.19C404.757 369.24 405.665 370.023 405.916 371.59L406.762 385.126C410.397 379.925 414.564 375.726 419.264 372.53C423.964 369.334 429.259 367.736 435.15 367.736C441.981 367.736 447.433 369.71 451.506 373.658C455.642 377.606 458.431 383.089 459.872 390.108C461 386.285 462.567 382.964 464.572 380.144C466.64 377.324 468.99 375.005 471.622 373.188C474.254 371.308 477.105 369.929 480.176 369.052C483.309 368.175 486.505 367.736 489.764 367.736C494.401 367.736 498.569 368.519 502.266 370.086C505.963 371.59 509.097 373.846 511.666 376.854C514.235 379.862 516.209 383.559 517.588 387.946C518.967 392.333 519.656 397.346 519.656 402.986V462.77H510.726V402.986C510.726 393.837 508.752 386.881 504.804 382.118C500.856 377.293 495.216 374.88 487.884 374.88C484.625 374.88 481.492 375.475 478.484 376.666C475.539 377.857 472.907 379.643 470.588 382.024C468.332 384.343 466.515 387.257 465.136 390.766C463.82 394.275 463.162 398.349 463.162 402.986V462.77H454.138V402.986C454.138 393.899 452.321 386.943 448.686 382.118C445.114 377.293 439.85 374.88 432.894 374.88C427.818 374.88 423.118 376.384 418.794 379.392C414.47 382.4 410.616 386.567 407.232 391.894V462.77H398.208Z" fill="#FDFCF7"/>
<path d="M747.258 163.356C743.686 157.967 739.707 154.175 735.32 151.982C730.996 149.789 726.045 148.692 720.468 148.692C714.953 148.692 710.128 149.695 705.992 151.7C701.856 153.705 698.378 156.557 695.558 160.254C692.801 163.889 690.701 168.275 689.26 173.414C687.881 178.49 687.192 184.099 687.192 190.24C687.192 204.152 689.73 214.398 694.806 220.978C699.945 227.495 707.339 230.754 716.99 230.754C723.131 230.754 728.74 229.156 733.816 225.96C738.892 222.764 743.373 218.283 747.258 212.518V163.356ZM756.188 100V236.77H751.3C749.671 236.77 748.731 235.955 748.48 234.326L747.54 219.568C743.404 225.208 738.579 229.689 733.064 233.01C727.549 236.331 721.345 237.992 714.452 237.992C702.921 237.992 693.96 234.013 687.568 226.054C681.176 218.095 677.98 206.157 677.98 190.24C677.98 183.409 678.857 177.049 680.612 171.158C682.429 165.205 685.061 160.066 688.508 155.742C691.955 151.355 696.185 147.909 701.198 145.402C706.274 142.895 712.102 141.642 718.682 141.642C725.011 141.642 730.495 142.801 735.132 145.12C739.769 147.439 743.811 150.885 747.258 155.46V100H756.188Z" fill="#FDFCF7"/>
<path d="M592.383 159.596C596.707 154.207 601.689 149.883 607.329 146.624C613.031 143.365 619.361 141.736 626.317 141.736C631.455 141.736 635.967 142.551 639.853 144.18C643.801 145.809 647.059 148.159 649.629 151.23C652.198 154.301 654.141 157.998 655.457 162.322C656.773 166.646 657.431 171.534 657.431 176.986V236.77H648.407V176.986C648.407 168.213 646.401 161.351 642.391 156.4C638.38 151.387 632.27 148.88 624.061 148.88C617.982 148.88 612.279 150.447 606.953 153.58C601.689 156.651 596.989 160.943 592.853 166.458V236.77H583.829V143.24H588.811C590.377 143.24 591.286 144.023 591.537 145.59L592.383 159.596Z" fill="#FDFCF7"/>
<path d="M556.793 143.24V236.77H551.811C550.245 236.77 549.336 235.955 549.085 234.326L548.239 220.414C543.915 225.803 538.902 230.127 533.199 233.386C527.559 236.645 521.261 238.274 514.305 238.274C509.104 238.274 504.561 237.459 500.675 235.83C496.79 234.201 493.563 231.851 490.993 228.78C488.424 225.709 486.481 222.012 485.165 217.688C483.849 213.364 483.191 208.476 483.191 203.024V143.24H492.215V203.024C492.215 211.797 494.221 218.691 498.231 223.704C502.242 228.655 508.352 231.13 516.561 231.13C522.64 231.13 528.311 229.595 533.575 226.524C538.902 223.391 543.633 219.067 547.769 213.552V143.24H556.793Z" fill="#FDFCF7"/>
<path d="M420.189 141.736C426.895 141.736 432.879 142.895 438.143 145.214C443.47 147.47 447.951 150.697 451.585 154.896C455.22 159.095 457.977 164.171 459.857 170.124C461.8 176.015 462.771 182.626 462.771 189.958C462.771 197.29 461.8 203.901 459.857 209.792C457.977 215.683 455.22 220.727 451.585 224.926C447.951 229.125 443.47 232.352 438.143 234.608C432.879 236.864 426.895 237.992 420.189 237.992C413.484 237.992 407.468 236.864 402.141 234.608C396.877 232.352 392.397 229.125 388.699 224.926C385.065 220.727 382.276 215.683 380.333 209.792C378.453 203.901 377.513 197.29 377.513 189.958C377.513 182.626 378.453 176.015 380.333 170.124C382.276 164.171 385.065 159.095 388.699 154.896C392.397 150.697 396.877 147.47 402.141 145.214C407.468 142.895 413.484 141.736 420.189 141.736ZM420.189 230.942C425.767 230.942 430.623 230.002 434.759 228.122C438.958 226.179 442.436 223.422 445.193 219.85C448.013 216.278 450.113 211.985 451.491 206.972C452.87 201.896 453.559 196.225 453.559 189.958C453.559 183.754 452.87 178.114 451.491 173.038C450.113 167.962 448.013 163.638 445.193 160.066C442.436 156.431 438.958 153.643 434.759 151.7C430.623 149.757 425.767 148.786 420.189 148.786C414.612 148.786 409.724 149.757 405.525 151.7C401.389 153.643 397.911 156.431 395.091 160.066C392.334 163.638 390.235 167.962 388.793 173.038C387.415 178.114 386.725 183.754 386.725 189.958C386.725 196.225 387.415 201.896 388.793 206.972C390.235 211.985 392.334 216.278 395.091 219.85C397.911 223.422 401.389 226.179 405.525 228.122C409.724 230.002 414.612 230.942 420.189 230.942Z" fill="#FDFCF7"/>
<path d="M358.468 154.802C357.967 155.679 357.246 156.118 356.306 156.118C355.617 156.118 354.739 155.742 353.674 154.99C352.609 154.175 351.167 153.298 349.35 152.358C347.595 151.355 345.402 150.478 342.77 149.726C340.138 148.911 336.942 148.504 333.182 148.504C329.798 148.504 326.696 149.005 323.876 150.008C321.119 150.948 318.737 152.233 316.732 153.862C314.789 155.491 313.285 157.403 312.22 159.596C311.155 161.727 310.622 163.983 310.622 166.364C310.622 169.309 311.374 171.753 312.878 173.696C314.382 175.639 316.325 177.299 318.706 178.678C321.15 180.057 323.939 181.247 327.072 182.25C330.205 183.253 333.37 184.255 336.566 185.258C339.825 186.261 343.021 187.389 346.154 188.642C349.287 189.833 352.045 191.337 354.426 193.154C356.87 194.971 358.844 197.196 360.348 199.828C361.852 202.46 362.604 205.656 362.604 209.416C362.604 213.489 361.883 217.281 360.442 220.79C359.001 224.299 356.87 227.339 354.05 229.908C351.293 232.477 347.877 234.514 343.804 236.018C339.731 237.522 335.062 238.274 329.798 238.274C323.218 238.274 317.547 237.24 312.784 235.172C308.021 233.041 303.76 230.284 300 226.9L302.068 223.704C302.381 223.203 302.726 222.827 303.102 222.576C303.541 222.325 304.105 222.2 304.794 222.2C305.609 222.2 306.58 222.701 307.708 223.704C308.899 224.707 310.465 225.803 312.408 226.994C314.351 228.122 316.732 229.187 319.552 230.19C322.435 231.193 325.975 231.694 330.174 231.694C334.122 231.694 337.6 231.161 340.608 230.096C343.616 228.968 346.123 227.464 348.128 225.584C350.133 223.704 351.637 221.511 352.64 219.004C353.705 216.435 354.238 213.74 354.238 210.92C354.238 207.787 353.486 205.186 351.982 203.118C350.478 201.05 348.504 199.295 346.06 197.854C343.616 196.413 340.827 195.191 337.694 194.188C334.623 193.185 331.459 192.183 328.2 191.18C324.941 190.177 321.745 189.081 318.612 187.89C315.541 186.699 312.784 185.195 310.34 183.378C307.896 181.561 305.922 179.367 304.418 176.798C302.914 174.166 302.162 170.907 302.162 167.022C302.162 163.701 302.883 160.505 304.324 157.434C305.765 154.363 307.802 151.669 310.434 149.35C313.129 147.031 316.387 145.183 320.21 143.804C324.033 142.425 328.325 141.736 333.088 141.736C338.791 141.736 343.835 142.551 348.222 144.18C352.671 145.809 356.713 148.316 360.348 151.7L358.468 154.802Z" fill="#FDFCF7"/>
</g>
</svg>
